<?xml version="1.0" encoding="UTF-8" standalone="no"?>
<svg width="196px" height="65px" viewBox="0 0 196 65" version="1.1" xmlns="http://www.w3.org/2000/svg" xmlns:xlink="http://www.w3.org/1999/xlink">
    <!-- Generator: Sketch 39.1 (31720) - http://www.bohemiancoding.com/sketch -->
    <title>appstore</title>
    <desc>Created with Sketch.</desc>
    <defs>
        <polygon id="path-1" points="0.02296875 0.736620209 0.02296875 64.8627875 195.800937 64.8627875 195.800937 0.736620209 0.02296875 0.736620209"></polygon>
    </defs>
    <g id="Page-1" stroke="none" stroke-width="1" fill="none" fill-rule="evenodd">
        <g id="appstore">
            <mask id="mask-2" fill="white">
                <use xlink:href="#path-1"></use>
            </mask>
            <g id="Clip-33"></g>
            <path d="M195.800938,56.1961672 C195.800938,60.9817422 191.926492,64.8627875 187.147461,64.8627875 L8.65539062,64.8627875 C3.87559375,64.8627875 0,60.9817422 0,56.1961672 L0,9.40247387 C0,4.61728223 3.87559375,0.736620209 8.65539062,0.736620209 L187.147461,0.736620209 C191.926492,0.736620209 195.800938,4.61728223 195.800938,9.40247387 L195.800938,56.1961672" id="Fill-34" fill="#27B8FF" mask="url(#mask-2)"></path>
            <path d="M17.1239688,45.7273868 L34.5599297,45.7273868 L34.5599297,19.6320906 L17.1239688,19.6320906 L17.1239688,45.7273868 Z M25.8417578,51.4680836 C24.5689063,51.4680836 23.5372266,50.4351568 23.5372266,49.1592334 C23.5372266,47.8844599 24.5689063,46.8515331 25.8417578,46.8515331 C27.1161406,46.8515331 28.1478203,47.8844599 28.1478203,49.1592334 C28.1478203,50.4351568 27.1161406,51.4680836 25.8417578,51.4680836 L25.8417578,51.4680836 Z M33.816125,11.7032753 L17.8670078,11.7032753 C15.9563906,11.7032753 14.406,13.254007 14.406,15.1684669 L14.406,50.5459233 C14.406,52.4607666 15.9563906,54.0126481 17.8670078,54.0126481 L33.816125,54.0126481 C35.7286562,54.0126481 37.2790469,52.4607666 37.2790469,50.5459233 L37.2790469,15.1684669 C37.2790469,13.254007 35.7286562,11.7032753 33.816125,11.7032753 L33.816125,11.7032753 Z" id="Fill-36" fill="#FFFFFF" mask="url(#mask-2)"></path>
            <path d="M53.4019609,17.0660627 L52.4740234,14.3758537 C52.2799375,13.7649129 52.1413594,13.2110801 52.0027813,12.670662 L51.9622031,12.670662 C51.8374063,13.2110801 51.6850469,13.7940418 51.5047422,14.3616725 L50.5909688,17.0660627 L53.4019609,17.0660627 L53.4019609,17.0660627 Z M50.341375,18.0085366 L49.3720938,20.9478746 L48.1256563,20.9478746 L51.296875,11.601324 L52.7515625,11.601324 L55.9365625,20.9478746 L54.6483984,20.9478746 L53.6511719,18.0085366 L50.341375,18.0085366 L50.341375,18.0085366 Z" id="Fill-37" fill="#FFFFFF" mask="url(#mask-2)"></path>
            <path d="M57.1833828,14.2363415 L58.4987266,17.995122 C58.7211406,18.6183275 58.9010625,19.1736934 59.0400234,19.7279094 L59.0813672,19.7279094 C59.2337266,19.1736934 59.4266641,18.6183275 59.6486953,17.995122 L60.9510234,14.2363415 L62.2254063,14.2363415 L59.5928047,20.9478746 L58.4294375,20.9478746 L55.8825859,14.2363415 L57.1833828,14.2363415" id="Fill-38" fill="#FFFFFF" mask="url(#mask-2)"></path>
            <path d="M66.6426797,17.5229268 C65.3127891,17.495331 63.8048906,17.7310453 63.8048906,19.0349477 C63.8048906,19.838676 64.3301094,20.1997213 64.9391641,20.1997213 C65.8265234,20.1997213 66.3934687,19.6443554 66.5879375,19.0763415 C66.6292812,18.9510105 66.6426797,18.8126481 66.6426797,18.6877003 L66.6426797,17.5229268 L66.6426797,17.5229268 Z M67.8339922,19.3404181 C67.8339922,19.9218467 67.8619375,20.4894774 67.9316094,20.9478746 L66.8375313,20.9478746 L66.7261328,20.1023693 L66.6847891,20.1023693 C66.3257109,20.6301394 65.5907109,21.1008014 64.6348281,21.1008014 C63.277375,21.1008014 62.5856328,20.1445296 62.5856328,19.1736934 C62.5856328,17.5505226 64.0261563,16.6632404 66.6155,16.6774216 L66.6155,16.5382927 C66.6155,15.9844599 66.4627578,14.9706969 65.0926719,14.9864111 C64.4549063,14.9864111 63.8048906,15.1654007 63.3332656,15.484669 L63.0553438,14.6656098 C63.6104219,14.3195122 64.4273438,14.0841812 65.2714453,14.0841812 C67.3363359,14.0841812 67.8339922,15.484669 67.8339922,16.8303484 L67.8339922,19.3404181 L67.8339922,19.3404181 Z" id="Fill-39" fill="#FFFFFF" mask="url(#mask-2)"></path>
            <path d="M69.7174297,20.9478746 L70.9363047,20.9478746 L70.9363047,14.2363415 L69.7174297,14.2363415 L69.7174297,20.9478746 Z M70.2977734,13.0025784 C69.8418437,13.0025784 69.5367422,12.6426829 69.5367422,12.2122648 C69.5367422,11.78223 69.855625,11.4365157 70.3261016,11.4365157 C70.7977266,11.4365157 71.1024453,11.78223 71.1024453,12.2122648 C71.1024453,12.6426829 70.7977266,13.0025784 70.3134687,13.0025784 L70.2977734,13.0025784 L70.2977734,13.0025784 Z" id="Fill-40" fill="#FFFFFF" mask="url(#mask-2)"></path>
            <polygon id="Fill-41" fill="#FFFFFF" mask="url(#mask-2)" points="72.8882656 20.9478746 74.1071406 20.9478746 74.1071406 11.1034495 72.8882656 11.1034495"></polygon>
            <path d="M79.5916953,17.5229268 C78.2618047,17.495331 76.7516094,17.7310453 76.7516094,19.0349477 C76.7516094,19.838676 77.2783594,20.1997213 77.8874141,20.1997213 C78.7747734,20.1997213 79.3421016,19.6443554 79.5361875,19.0763415 C79.5779141,18.9510105 79.5916953,18.8126481 79.5916953,18.6877003 L79.5916953,17.5229268 L79.5916953,17.5229268 Z M80.782625,19.3404181 C80.782625,19.9218467 80.8105703,20.4894774 80.8794766,20.9478746 L79.78425,20.9478746 L79.6736172,20.1023693 L79.6330391,20.1023693 C79.2728125,20.6301394 78.5389609,21.1008014 77.5823125,21.1008014 C76.2263906,21.1008014 75.5331172,20.1445296 75.5331172,19.1736934 C75.5331172,17.5505226 76.9736406,16.6632404 79.5641328,16.6774216 L79.5641328,16.5382927 C79.5641328,15.9844599 79.4113906,14.9706969 78.0393906,14.9864111 C77.4035391,14.9864111 76.7516094,15.1654007 76.2822812,15.484669 L76.0039766,14.6656098 C76.5579062,14.3195122 77.3759766,14.0841812 78.2204609,14.0841812 C80.2838203,14.0841812 80.782625,15.484669 80.782625,16.8303484 L80.782625,19.3404181 L80.782625,19.3404181 Z" id="Fill-42" fill="#FFFFFF" mask="url(#mask-2)"></path>
            <path d="M83.8837891,18.2588153 C83.8837891,18.4098258 83.8975703,18.5627526 83.9266641,18.7018815 C84.1609453,19.5470035 84.8817813,20.1299652 85.7538281,20.1299652 C87.042375,20.1299652 87.789625,19.0905226 87.789625,17.5505226 C87.789625,16.1918118 87.0975,15.0419861 85.7959375,15.0419861 C84.9652344,15.0419861 84.188125,15.6237979 83.9530781,16.5382927 C83.9121172,16.6916028 83.8837891,16.8579443 83.8837891,17.0518815 L83.8837891,18.2588153 L83.8837891,18.2588153 Z M82.6645312,11.1034495 L83.8837891,11.1034495 L83.8837891,15.3045296 L83.9121172,15.3045296 C84.3408672,14.555993 85.1160625,14.0841812 86.1959766,14.0841812 C87.8589141,14.0841812 89.0222812,15.4708711 89.0222812,17.495331 C89.0222812,19.9080488 87.4983047,21.1008014 86.0034219,21.1008014 C85.0345234,21.1008014 84.2711953,20.7259582 83.7601406,19.838676 L83.7306641,19.838676 L83.661375,20.9478746 L82.6105547,20.9478746 C82.6518984,20.4894774 82.6645312,19.8110801 82.6645312,19.2154704 L82.6645312,11.1034495 L82.6645312,11.1034495 Z" id="Fill-43" fill="#FFFFFF" mask="url(#mask-2)"></path>
            <polygon id="Fill-44" fill="#FFFFFF" mask="url(#mask-2)" points="90.4758203 20.9478746 91.6939297 20.9478746 91.6939297 11.1034495 90.4758203 11.1034495"></polygon>
            <path d="M97.8981719,16.9273171 C97.9119531,16.164216 97.5789063,14.943101 96.2214531,14.943101 C94.9773125,14.943101 94.4497969,16.0802787 94.3525625,16.9273171 L97.8981719,16.9273171 L97.8981719,16.9273171 Z M94.3391641,17.8004181 C94.3663438,19.4511847 95.4049141,20.1299652 96.6241719,20.1299652 C97.49775,20.1299652 98.0371328,19.9774216 98.4804297,19.796899 L98.7013125,20.6562021 C98.2729453,20.8505226 97.5241641,21.0870035 96.4580313,21.0870035 C94.4084531,21.0870035 93.1616328,19.7137282 93.1616328,17.7034495 C93.1616328,15.6651916 94.3663438,14.0703833 96.3206016,14.0703833 C98.5068438,14.0703833 99.0757031,15.9986411 99.0757031,17.2312544 C99.0757031,17.4811498 99.0615391,17.6754704 99.0339766,17.814216 L94.3391641,17.8004181 L94.3391641,17.8004181 Z" id="Fill-45" fill="#FFFFFF" mask="url(#mask-2)"></path>
            <path d="M106.151609,20.1859233 C107.314977,20.1859233 108.187023,19.0905226 108.187023,17.5647038 C108.187023,16.4275261 107.620078,14.9990592 106.179555,14.9990592 C104.752047,14.9990592 104.129977,16.3301742 104.129977,17.6060976 C104.129977,19.0763415 104.96068,20.1859233 106.138211,20.1859233 L106.151609,20.1859233 L106.151609,20.1859233 Z M106.110648,21.1008014 C104.310281,21.1008014 102.896937,19.7693031 102.896937,17.6478746 C102.896937,15.4014983 104.379953,14.0841812 106.221281,14.0841812 C108.14568,14.0841812 109.447625,15.484669 109.447625,17.5229268 C109.447625,20.0191986 107.715781,21.1008014 106.124047,21.1008014 L106.110648,21.1008014 L106.110648,21.1008014 Z" id="Fill-46" fill="#FFFFFF" mask="url(#mask-2)"></path>
            <path d="M110.916859,16.054216 C110.916859,15.3459233 110.901164,14.7920906 110.859055,14.2363415 L111.9405,14.2363415 L112.009023,15.3317422 L112.036586,15.3317422 C112.369633,14.7089199 113.144828,14.0841812 114.252305,14.0841812 C115.179859,14.0841812 116.623063,14.6391638 116.623063,16.941115 L116.623063,20.9478746 L115.401891,20.9478746 L115.401891,17.0787108 C115.401891,15.9986411 115.001469,15.08223 113.850734,15.08223 C113.060992,15.08223 112.438922,15.6513937 112.216891,16.3301742 C112.161766,16.483101 112.13382,16.7054007 112.13382,16.8997213 L112.13382,20.9478746 L110.916859,20.9478746 L110.916859,16.054216" id="Fill-47" fill="#FFFFFF" mask="url(#mask-2)"></path>
            <path d="M122.866734,12.628885 L122.866734,14.2363415 L124.610445,14.2363415 L124.610445,15.1654007 L122.866734,15.1654007 L122.866734,18.7850523 C122.866734,19.6167596 123.102547,20.0885714 123.779742,20.0885714 C124.113172,20.0885714 124.307641,20.0613589 124.487945,20.0050174 L124.541539,20.9340767 C124.307641,21.0172474 123.93325,21.1008014 123.462773,21.1008014 C122.893148,21.1008014 122.43607,20.9064808 122.145516,20.5887456 C121.814,20.2131359 121.675039,19.6167596 121.675039,18.826446 L121.675039,15.1654007 L120.637234,15.1654007 L120.637234,14.2363415 L121.675039,14.2363415 L121.675039,13.0025784 L122.866734,12.628885" id="Fill-48" fill="#FFFFFF" mask="url(#mask-2)"></path>
            <path d="M125.913156,11.1034495 L127.131648,11.1034495 L127.131648,15.2903484 L127.158445,15.2903484 C127.352148,14.943101 127.65725,14.6257491 128.032023,14.4310453 C128.39225,14.2087456 128.820617,14.0841812 129.278844,14.0841812 C130.178453,14.0841812 131.617828,14.6391638 131.617828,16.9549129 L131.617828,20.9478746 L130.400484,20.9478746 L130.400484,17.0940418 C130.400484,15.9986411 129.998148,15.0960279 128.84818,15.0960279 C128.059586,15.0960279 127.450148,15.6513937 127.215484,16.3163763 C127.145812,16.483101 127.131648,16.6632404 127.131648,16.8997213 L127.131648,20.9478746 L125.913156,20.9478746 L125.913156,11.1034495" id="Fill-49" fill="#FFFFFF" mask="url(#mask-2)"></path>
            <path d="M137.781492,16.9273171 C137.793742,16.164216 137.462227,14.943101 136.105539,14.943101 C134.859867,14.943101 134.331203,16.0802787 134.2355,16.9273171 L137.781492,16.9273171 L137.781492,16.9273171 Z M134.222102,17.8004181 C134.249664,19.4511847 135.288234,20.1299652 136.506727,20.1299652 C137.379539,20.1299652 137.92007,19.9774216 138.364133,19.796899 L138.584633,20.6562021 C138.154734,20.8505226 137.407102,21.0870035 136.340203,21.0870035 C134.291391,21.0870035 133.044187,19.7137282 133.044187,17.7034495 C133.044187,15.6651916 134.249664,14.0703833 136.202391,14.0703833 C138.390164,14.0703833 138.959406,15.9986411 138.959406,17.2312544 C138.959406,17.4811498 138.944859,17.6754704 138.917297,17.814216 L134.222102,17.8004181 L134.222102,17.8004181 Z" id="Fill-50" fill="#FFFFFF" mask="url(#mask-2)"></path>
            <path d="M143.264516,20.9478746 L144.483008,20.9478746 L144.483008,14.2363415 L143.264516,14.2363415 L143.264516,20.9478746 Z M143.847539,13.0025784 C143.389312,13.0025784 143.084211,12.6426829 143.084211,12.2122648 C143.084211,11.78223 143.402711,11.4365157 143.874336,11.4365157 C144.344812,11.4365157 144.649914,11.78223 144.649914,12.2122648 C144.649914,12.6426829 144.344812,13.0025784 143.858641,13.0025784 L143.847539,13.0025784 L143.847539,13.0025784 Z" id="Fill-51" fill="#FFFFFF" mask="url(#mask-2)"></path>
            <path d="M147.682555,16.2190244 C147.944781,16.2887805 148.292375,16.3163763 148.679781,16.3163763 C150.147484,16.3163763 151.019914,15.5958188 151.019914,14.3336934 C151.019914,13.0861324 150.147484,12.4901394 148.818359,12.4901394 C148.292375,12.4901394 147.891187,12.5445645 147.682555,12.5874913 L147.682555,16.2190244 L147.682555,16.2190244 Z M146.477078,11.7266551 C147.058187,11.6170383 147.82075,11.5327178 148.790414,11.5327178 C149.980961,11.5327178 150.854156,11.8094425 151.406555,12.31 C151.919523,12.7526829 152.238789,13.4329965 152.238789,14.2647038 C152.238789,15.1102091 151.989195,15.7763415 151.503789,16.2608014 C150.867555,16.941115 149.828219,17.2868293 148.651453,17.2868293 C148.292375,17.2868293 147.959711,17.2726481 147.682555,17.2051916 L147.682555,20.9478746 L146.477078,20.9478746 L146.477078,11.7266551 L146.477078,11.7266551 Z" id="Fill-52" fill="#FFFFFF" mask="url(#mask-2)"></path>
            <path d="M153.665531,11.1034495 L154.884789,11.1034495 L154.884789,15.2903484 L154.912352,15.2903484 C155.106055,14.943101 155.411156,14.6257491 155.784398,14.4310453 C156.145391,14.2087456 156.575289,14.0841812 157.031602,14.0841812 C157.931594,14.0841812 159.371734,14.6391638 159.371734,16.9549129 L159.371734,20.9478746 L158.153625,20.9478746 L158.153625,17.0940418 C158.153625,15.9986411 157.751289,15.0960279 156.601703,15.0960279 C155.813492,15.0960279 155.204055,15.6513937 154.967859,16.3163763 C154.898187,16.483101 154.884789,16.6632404 154.884789,16.8997213 L154.884789,20.9478746 L153.665531,20.9478746 L153.665531,11.1034495" id="Fill-53" fill="#FFFFFF" mask="url(#mask-2)"></path>
            <path d="M164.053531,20.1859233 C165.214984,20.1859233 166.088945,19.0905226 166.088945,17.5647038 C166.088945,16.4275261 165.521234,14.9990592 164.079945,14.9990592 C162.653969,14.9990592 162.029602,16.3301742 162.029602,17.6060976 C162.029602,19.0763415 162.860305,20.1859233 164.037836,20.1859233 L164.053531,20.1859233 L164.053531,20.1859233 Z M164.011039,21.1008014 C162.210672,21.1008014 160.797328,19.7693031 160.797328,17.6478746 C160.797328,15.4014983 162.280344,14.0841812 164.122437,14.0841812 C166.046836,14.0841812 167.348016,15.484669 167.348016,17.5229268 C167.348016,20.0191986 165.616937,21.1008014 164.025203,21.1008014 L164.011039,21.1008014 L164.011039,21.1008014 Z" id="Fill-54" fill="#FFFFFF" mask="url(#mask-2)"></path>
            <path d="M168.816484,16.054216 C168.816484,15.3459233 168.80232,14.7920906 168.760977,14.2363415 L169.841273,14.2363415 L169.91018,15.3317422 L169.938508,15.3317422 C170.271555,14.7089199 171.04675,14.0841812 172.153844,14.0841812 C173.081781,14.0841812 174.521156,14.6391638 174.521156,16.941115 L174.521156,20.9478746 L173.303813,20.9478746 L173.303813,17.0787108 C173.303813,15.9986411 172.901859,15.08223 171.751891,15.08223 C170.962914,15.08223 170.340078,15.6513937 170.118813,16.3301742 C170.062922,16.483101 170.033445,16.7054007 170.033445,16.8997213 L170.033445,20.9478746 L168.816484,20.9478746 L168.816484,16.054216" id="Fill-55" fill="#FFFFFF" mask="url(#mask-2)"></path>
            <path d="M180.685203,16.9273171 C180.698602,16.164216 180.365938,14.943101 179.008867,14.943101 C177.761664,14.943101 177.236063,16.0802787 177.138828,16.9273171 L180.685203,16.9273171 L180.685203,16.9273171 Z M177.12543,17.8004181 C177.152992,19.4511847 178.192328,20.1299652 179.411203,20.1299652 C180.282867,20.1299652 180.823398,19.9774216 181.26593,19.796899 L181.487961,20.6562021 C181.057297,20.8505226 180.31043,21.0870035 179.244297,21.0870035 C177.194719,21.0870035 175.947898,19.7137282 175.947898,17.7034495 C175.947898,15.6651916 177.152992,14.0703833 179.105336,14.0703833 C181.293492,14.0703833 181.861969,15.9986411 181.861969,17.2312544 C181.861969,17.4811498 181.84857,17.6754704 181.820625,17.814216 L177.12543,17.8004181 L177.12543,17.8004181 Z" id="Fill-56" fill="#FFFFFF" mask="url(#mask-2)"></path>
            <path d="M58.0278672,31.2579791 C58.3050234,32.3380488 58.604,33.4598955 58.9887266,34.6718118 L61.2017656,41.0886063 L54.9033516,41.0886063 L57.0861484,34.6300348 C57.4184297,33.5829268 57.7334844,32.4518815 58.0278672,31.2579791 L58.0278672,31.2579791 Z M56.0793516,27.2788153 L47.8676406,51.4799652 L51.6280078,51.4799652 L54.0799219,44.0490244 L62.0309375,44.0490244 L64.5517578,51.4799652 L68.41625,51.4799652 L60.1689375,27.2788153 L56.0793516,27.2788153 L56.0793516,27.2788153 Z" id="Fill-57" fill="#FFFFFF" mask="url(#mask-2)"></path>
            <path d="M78.1316484,36.5835889 C81.3916797,36.5835889 82.8505781,39.6076307 82.8505781,42.6033101 C82.8505781,46.4682578 80.9889609,48.8690941 77.9926875,48.8690941 C75.9473203,48.8690941 74.1771953,47.475122 73.6845156,45.4717422 C73.5999141,45.1605226 73.5539766,44.7496516 73.5539766,44.2858885 L73.5539766,41.3411847 C73.5539766,41.0748084 73.6136953,40.751324 73.6707344,40.4378049 C73.6887266,40.3373868 73.70825,40.2373519 73.7231797,40.14 C74.2683047,38.0454007 76.0790078,36.5835889 78.1316484,36.5835889 L78.1316484,36.5835889 Z M79.0427422,33.5526481 C76.5517813,33.5526481 74.5565625,34.5150523 73.2285859,36.3448084 L73.0827344,33.9374564 L69.7377188,33.9374564 L69.757625,34.2456098 C69.855625,35.7449826 69.8973516,37.3953659 69.8973516,39.7655401 L69.8973516,58.419547 L73.5539766,58.419547 L73.5539766,49.714216 C74.6886328,51.0736934 76.5008672,51.8647735 78.5535078,51.8647735 C80.6911328,51.8647735 82.6603203,51.0265505 84.0954844,49.5060976 C85.6971719,47.8108711 86.5424219,45.3743902 86.5424219,42.4630314 C86.5424219,39.8904878 85.8085703,37.6663415 84.4174297,36.032439 C83.055,34.4330314 81.1474453,33.5526481 79.0427422,33.5526481 L79.0427422,33.5526481 Z" id="Fill-58" fill="#FFFFFF" mask="url(#mask-2)"></path>
            <path d="M96.9652578,36.5835889 C100.224141,36.5835889 101.683039,39.6076307 101.683039,42.6033101 C101.683039,46.4682578 99.8202734,48.8690941 96.8251484,48.8690941 C94.7801641,48.8690941 93.0088906,47.475122 92.5165938,45.4717422 C92.4319922,45.1605226 92.3879688,44.7496516 92.3879688,44.2858885 L92.3879688,41.3411847 C92.3879688,41.0732753 92.4457734,40.7482578 92.5047266,40.4347387 C92.5223359,40.3358537 92.5403281,40.2373519 92.5571719,40.14 C93.1007656,38.0454007 94.9118516,36.5835889 96.9652578,36.5835889 L96.9652578,36.5835889 Z M97.8752031,33.5526481 C95.384625,33.5526481 93.3894063,34.5150523 92.0602813,36.3448084 L91.9148125,33.9374564 L88.5705625,33.9374564 L88.5893203,34.2456098 C88.6880859,35.7465157 88.7298125,37.3953659 88.7298125,39.7655401 L88.7298125,58.419547 L92.3879688,58.419547 L92.3879688,49.714216 C93.5218594,51.0736934 95.3329453,51.8647735 97.3852031,51.8647735 C99.5235938,51.8647735 101.492398,51.0265505 102.929094,49.5060976 C104.52925,47.8108711 105.374883,45.3743902 105.374883,42.4630314 C105.374883,39.8904878 104.639883,37.6663415 103.249125,36.032439 C101.887844,34.4330314 99.9795234,33.5526481 97.8752031,33.5526481 L97.8752031,33.5526481 Z" id="Fill-59" fill="#FFFFFF" mask="url(#mask-2)"></path>
            <path d="M121.467937,37.5333449 C118.054781,36.2098955 116.961086,35.1689199 116.961086,33.2460279 C116.961086,31.6270732 118.246187,29.9943206 121.118047,29.9943206 C123.487656,29.9943206 125.003977,30.8191289 125.411289,31.0728571 L125.72175,31.2644948 L126.75343,28.2090244 L126.549391,28.0894425 C125.936891,27.7299303 124.190883,26.8928571 121.223703,26.8928571 C116.559516,26.8928571 113.302547,29.6497561 113.302547,33.5955749 C113.302547,36.7779094 115.342172,39.0020557 119.722312,40.5957143 C122.825008,41.7574216 123.980336,42.9474913 123.980336,44.986899 C123.980336,47.2953659 122.198344,48.7284321 119.331844,48.7284321 C117.464867,48.7284321 115.543531,48.1830314 114.060898,47.2317422 L113.743547,47.0278397 L112.762016,50.154216 L112.94232,50.2741812 C114.322359,51.197108 116.921273,51.8647735 119.122445,51.8647735 C125.408227,51.8647735 127.636961,48.0278049 127.636961,44.7412195 C127.636961,41.3538328 125.849992,39.264216 121.467937,37.5333449" id="Fill-60" fill="#FFFFFF" mask="url(#mask-2)"></path>
            <path d="M134.22057,29.7681882 L130.633234,30.8954007 L130.633234,33.9374564 L128.007906,33.9374564 L128.007906,36.8641463 L130.633234,36.8641463 L130.633234,45.8281882 C130.633234,47.9956098 131.047437,49.5141463 131.899578,50.4738676 C132.716883,51.3707317 133.973656,51.8647735 135.437531,51.8647735 C136.821016,51.8647735 137.802547,51.5914983 138.264602,51.4278397 L138.469406,51.3550174 L138.294461,48.4233449 L137.943805,48.5314286 C137.48175,48.6732404 137.006297,48.7284321 136.242969,48.7284321 C134.825414,48.7284321 134.22057,47.8300348 134.22057,45.7227875 L134.22057,36.8641463 L138.631719,36.8641463 L138.631719,33.9374564 L134.22057,33.9374564 L134.22057,29.7681882" id="Fill-61" fill="#FFFFFF" mask="url(#mask-2)"></path>
            <path d="M147.589914,36.4433101 C150.880187,36.4433101 152.376984,39.6543902 152.376984,42.639338 C152.376984,46.3099652 150.333531,48.9741115 147.520242,48.9741115 L147.485023,48.9741115 C144.711164,48.9741115 142.69757,46.3544251 142.69757,42.7447387 C142.69757,39.6087805 144.210062,36.4433101 147.589914,36.4433101 L147.589914,36.4433101 Z M147.695188,33.5526481 C142.578133,33.5526481 139.004961,37.3762021 139.004961,42.8489895 C139.004961,48.1577352 142.462906,51.8647735 147.414586,51.8647735 L147.449039,51.8647735 C151.635477,51.8647735 156.139648,48.9449826 156.139648,42.5339373 C156.139648,39.9265157 155.334211,37.6874216 153.809086,36.0569686 C152.274773,34.4192334 150.160117,33.5526481 147.695188,33.5526481 L147.695188,33.5526481 Z" id="Fill-62" fill="#FFFFFF" mask="url(#mask-2)"></path>
            <path d="M167.341125,33.7220557 L167.122156,33.6664808 C166.799828,33.585993 166.536836,33.5526481 166.212211,33.5526481 C164.298914,33.5526481 162.582383,34.6802439 161.6265,36.5000348 L161.51893,33.9374564 L158.237461,33.9374564 L158.258516,34.2456098 C158.35575,35.6951568 158.396711,37.3221603 158.396711,39.5183275 L158.362258,51.4799652 L162.020031,51.4799652 L162.020031,42.1479791 C162.020031,41.6401394 162.05525,41.1595122 162.120328,40.7290941 C162.533766,38.4869338 164.043961,37.0385366 165.968359,37.0385366 C166.343133,37.0385366 166.637516,37.0691986 166.950273,37.0998606 L167.341125,37.1401045 L167.341125,33.7220557" id="Fill-63" fill="#FFFFFF" mask="url(#mask-2)"></path>
            <path d="M175.319703,36.3034146 C176.433688,36.3034146 177.337891,36.6483624 178.00475,37.328676 C179.056719,38.4006969 179.241234,39.9794077 179.26382,40.7371429 L170.92425,40.7371429 C171.262656,38.6226132 172.584125,36.3034146 175.319703,36.3034146 L175.319703,36.3034146 Z M175.56432,33.51777 C170.695328,33.51777 167.294039,37.41223 167.294039,42.988885 C167.294039,48.359338 170.677336,51.8298955 175.913445,51.8298955 C178.667016,51.8298955 180.582609,51.2247038 181.70425,50.7180139 L181.923984,50.6183624 L181.221906,47.8902091 L180.916039,48.0132404 C179.919578,48.4191289 178.59543,48.8338328 176.333391,48.8338328 C174.744719,48.8338328 171.081203,48.3091289 170.856109,43.5247038 L182.661281,43.5599652 L182.708367,43.3265505 C182.783016,42.9543902 182.819,42.4534495 182.819,41.7980488 C182.819,37.9787108 180.919102,33.51777 175.56432,33.51777 L175.56432,33.51777 Z" id="Fill-64" fill="#FFFFFF" mask="url(#mask-2)"></path>
        </g>
    </g>
</svg>